<?xml version="1.0" standalone="no"?><!DOCTYPE svg PUBLIC "-//W3C//DTD SVG 1.1//EN" "http://www.w3.org/Graphics/SVG/1.1/DTD/svg11.dtd"><svg t="1545097190381" class="icon" style="" viewBox="0 0 1024 1024" version="1.1" xmlns="http://www.w3.org/2000/svg" p-id="610" xmlns:xlink="http://www.w3.org/1999/xlink" width="200" height="200"><defs><style type="text/css"></style></defs><path d="M512 148.5l400 160v53.4h-53.4c0 7.2-2.9 13.5-8.6 18.8-5.7 5.3-12.4 7.9-20.2 7.9H194.1c-7.9 0-14.5-2.6-20.2-7.9-5.7-5.3-8.6-11.5-8.6-18.8H112v-53.4l400-160z m371.2 666.6c7.9 0 14.5 2.6 20.2 7.9 5.7 5.3 8.6 11.5 8.6 18.8v53.4H112v-53.4c0-7.2 2.8-13.5 8.6-18.8 5.7-5.3 12.4-7.9 20.2-7.9h742.4z m-664.5-400h106.7v320h53.4v-320h106.6v320H539v-320h106.6v320h53.2v-320h106.6v320H830c7.9 0 14.5 2.6 20.2 7.9 5.7 5.3 8.6 11.6 8.6 18.8v26.6H165.4v-26.6c0-7.2 2.8-13.5 8.6-18.8 5.7-5.3 12.4-7.9 20.2-7.9h24.6l-0.1-320z" p-id="611"></path></svg>